<?xml version="1.0" encoding="iso-8859-1"?>
<!-- Generator: Adobe Illustrator 19.0.0, SVG Export Plug-In . SVG Version: 6.00 Build 0)  -->
<svg xmlns="http://www.w3.org/2000/svg" xmlns:xlink="http://www.w3.org/1999/xlink" version="1.1" id="Capa_1" x="0px" y="0px" viewBox="0 0 490.667 490.667" style="enable-background:new 0 0 490.667 490.667;" xml:space="preserve" width="512px" height="512px">
<g>
	<g>
		<path d="M458.667,115.522H32c-17.643,0-32,14.357-32,32v64c0,17.643,14.357,32,32,32h426.667c17.643,0,32-14.357,32-32v-64    C490.667,129.879,476.309,115.522,458.667,115.522z M469.333,211.522c0,5.888-4.779,10.667-10.667,10.667H32    c-5.888,0-10.667-4.779-10.667-10.667v-64c0-5.888,4.779-10.667,10.667-10.667h426.667c5.888,0,10.667,4.779,10.667,10.667    V211.522z" fill="#3a77e6"/>
	</g>
</g>
<g>
	<g>
		<path d="M458.667,222.188H32c-5.888,0-10.667,4.779-10.667,10.667v192c0,29.397,23.936,53.333,53.333,53.333H416    c29.397,0,53.333-23.936,53.333-53.333v-192C469.333,226.967,464.555,222.188,458.667,222.188z M448,424.855    c0,17.643-14.357,32-32,32H74.667c-17.643,0-32-14.357-32-32V243.522H448V424.855z" fill="#3a77e6"/>
	</g>
</g>
<g>
	<g>
		<path d="M172.16,13.719c-12.48-3.712-26.368,1.109-34.283,11.712c-6.016,8.085-7.829,18.133-5.013,27.584    c14.677,49.365,60.907,83.84,112.469,83.84c5.888,0,10.667-4.779,10.667-10.667C256,74.647,221.525,28.396,172.16,13.719z     M153.301,46.935c-1.195-4.032,0.533-7.211,1.685-8.747c2.069-2.773,5.205-4.437,8.363-4.437c0.917,0,1.835,0.149,2.731,0.427    c36.736,10.901,63.381,43.2,67.904,80.661C196.501,110.295,164.224,83.65,153.301,46.935z" fill="#3a77e6"/>
	</g>
</g>
<g>
	<g>
		<path d="M352.789,25.452c-7.893-10.603-21.867-15.424-34.283-11.733c-49.365,14.677-83.84,60.907-83.84,112.469    c0,5.888,4.779,10.667,10.667,10.667c51.563,0,97.792-34.475,112.469-83.819C360.64,43.586,358.805,33.516,352.789,25.452z     M337.344,46.935c-10.901,36.736-43.2,63.381-80.661,67.904c4.544-37.483,31.189-69.76,67.904-80.683    c0.917-0.256,1.835-0.405,2.731-0.405c3.157,0,6.293,1.664,8.341,4.437C336.811,39.724,338.56,42.903,337.344,46.935z" fill="#3a77e6"/>
	</g>
</g>
<g>
	<g>
		<path d="M249.429,116.354c-4.011-1.685-8.555-0.768-11.627,2.304l-64,64c-4.16,4.16-4.16,10.923,0,15.083    c4.16,4.16,10.923,4.16,15.083,0l45.781-45.803v315.584c0,5.888,4.779,10.667,10.667,10.667S256,473.41,256,467.522V126.188    C256,121.879,253.397,117.975,249.429,116.354z" fill="#3a77e6"/>
	</g>
</g>
<g>
	<g>
		<path d="M316.864,182.658l-64-64c-4.16-4.16-10.923-4.16-15.083,0c-4.16,4.16-4.16,10.923,0,15.083l64,64    c2.091,2.069,4.821,3.115,7.552,3.115s5.461-1.045,7.531-3.115C321.024,193.58,321.024,186.818,316.864,182.658z" fill="#3a77e6"/>
	</g>
</g>
<g>
</g>
<g>
</g>
<g>
</g>
<g>
</g>
<g>
</g>
<g>
</g>
<g>
</g>
<g>
</g>
<g>
</g>
<g>
</g>
<g>
</g>
<g>
</g>
<g>
</g>
<g>
</g>
<g>
</g>
</svg>
